<?xml version="1.0" encoding="UTF-8" standalone="no"?>
<svg width="299px" height="77px" viewBox="0 0 299 77" version="1.1" xmlns="http://www.w3.org/2000/svg" xmlns:xlink="http://www.w3.org/1999/xlink">
    <!-- Generator: Sketch 3.8.2 (29753) - http://www.bohemiancoding.com/sketch -->
    <title>Combined Shape</title>
    <desc>Created with Sketch.</desc>
    <defs></defs>
    <g id="web" stroke="none" stroke-width="1" fill="none" fill-rule="evenodd">
        <g id="Desktop-HD-Copy" transform="translate(-270.000000, -180.000000)" fill="#FEFEFE">
            <path d="M290.796115,209.351305 C290.065104,209.351305 289.630735,208.763548 289.82673,208.039348 L291.931037,200.258129 C292.127033,199.532617 292.879233,198.946172 293.610245,198.946172 L300.188023,198.946172 C300.919035,198.946172 301.353404,199.532617 301.157408,200.258129 L299.051777,208.039348 C298.857106,208.763548 298.104906,209.351305 297.373894,209.351305 L290.796115,209.351305 Z M295.158347,230.137955 C295.354343,229.413755 296.105218,228.825998 296.83623,228.825998 L301.615615,228.825998 C302.34795,228.825998 303.098826,228.238241 303.294822,227.514041 L304.201965,224.16199 C304.397961,223.43779 303.963592,222.850033 303.23258,222.850033 L298.453195,222.850033 C297.722184,222.850033 297.287815,222.262276 297.483811,221.538075 L299.094155,215.584414 C299.290151,214.860213 300.041027,214.272456 300.773362,214.272456 L306.475782,214.272456 C307.206793,214.272456 307.958993,213.684699 308.154989,212.960499 L312.921131,195.336978 C313.117127,194.611465 312.682758,194.02502 311.951746,194.02502 L284.936105,194.02502 C284.205093,194.02502 283.452893,194.611465 283.256897,195.336978 L278.490755,212.960499 C278.29476,213.684699 278.727804,214.272456 279.46014,214.272456 L288.989775,214.272456 C289.720787,214.272456 290.155156,214.860213 289.95916,215.584414 L283.746887,238.551537 C283.550891,239.275737 282.800015,239.863494 282.067679,239.863494 L281.692904,239.863494 C280.961892,239.863494 280.527523,239.275737 280.723519,238.551537 L286.232591,218.186025 C286.428587,217.460512 285.994217,216.874068 285.263206,216.874068 L278.755615,216.874068 C278.024603,216.874068 277.272403,217.460512 277.076407,218.186025 L271.213748,239.863494 L270.047043,244.175897 C269.851047,244.900098 270.285417,245.487855 271.016428,245.487855 L298.600192,245.487855 C299.331204,245.487855 300.083404,244.900098 300.2794,244.175897 L301.089869,241.175451 C301.285865,240.451251 300.85282,239.863494 300.120484,239.863494 L293.851266,239.863494 C293.120255,239.863494 292.685886,239.275737 292.881882,238.551537 L295.158347,230.137955 Z M382.572619,210.335404 L376.70069,210.335404 C375.936571,210.335404 375.151263,210.9494 374.945997,211.706399 L373.641566,216.531778 C373.4363,217.288777 373.890533,217.902773 374.654652,217.902773 L380.525257,217.902773 C381.289376,217.902773 382.076008,217.288777 382.279949,216.531778 L383.585705,211.706399 C383.790971,210.9494 383.336738,210.335404 382.572619,210.335404 Z M377.587041,207.05984 L383.45897,207.05984 C384.223089,207.05984 385.008397,206.445844 385.213663,205.688845 L388.092682,195.043624 C388.296624,194.286625 387.843715,193.672629 387.079596,193.672629 L381.207667,193.672629 C380.443548,193.672629 379.65824,194.286625 379.452974,195.043624 L376.573955,205.688845 C376.368689,206.445844 376.822922,207.05984 377.587041,207.05984 Z M487.208833,194.271275 L430.244234,194.271275 C429.478791,194.271275 428.693483,194.885271 428.489542,195.64227 L421.481367,221.550801 C421.277425,222.307801 421.730334,222.921797 422.494453,222.921797 L444.138749,222.921797 C444.902868,222.921797 445.357102,223.535793 445.151836,224.292792 L441.339187,238.38846 C441.135246,239.14546 440.349938,239.759456 439.585819,239.759456 L437.10144,239.759456 C436.337321,239.759456 435.552013,240.37214 435.346747,241.129139 L434.511116,244.222734 C434.30585,244.979734 434.75876,245.59373 435.522879,245.59373 L450.781419,245.59373 C451.545538,245.59373 452.330845,244.979734 452.536111,244.222734 L457.925996,224.292792 C458.131262,223.535793 458.91657,222.921797 459.680689,222.921797 L479.460376,222.921797 C480.224495,222.921797 481.009802,222.307801 481.215068,221.550801 L482.184453,217.965222 C482.388395,217.208223 481.935485,216.594227 481.171367,216.594227 L461.391679,216.594227 C460.62756,216.594227 460.174651,215.980231 460.379917,215.223232 L461.637998,210.569719 C461.843264,209.81272 461.389031,209.198724 460.624912,209.198724 L450.61853,209.198724 C449.854411,209.198724 449.069104,209.81272 448.863838,210.569719 L447.604432,215.223232 C447.400491,215.980231 446.615183,216.594227 445.851064,216.594227 L436.626017,216.594227 C435.861898,216.594227 435.407665,215.980231 435.612931,215.223232 L439.120991,202.250599 C439.326257,201.493599 440.111565,200.879603 440.875684,200.879603 L485.421033,200.879603 C486.185152,200.879603 486.971784,200.265607 487.175725,199.508608 L488.221919,195.64227 C488.427185,194.885271 487.972951,194.271275 487.208833,194.271275 Z M390.165603,203.586171 L421.389858,203.586171 C422.155301,203.586171 422.940608,202.972175 423.14455,202.215176 L423.829211,199.68441 C424.034477,198.927411 423.580243,198.313415 422.816125,198.313415 L402.862955,198.313415 C402.098836,198.313415 401.644602,197.699419 401.849868,196.94242 L402.394154,194.928565 C402.59942,194.171566 402.145186,193.558882 401.381067,193.558882 L392.877762,193.558882 C392.113643,193.558882 391.328335,194.171566 391.123069,194.928565 L389.152517,202.215176 C388.947251,202.972175 389.401484,203.586171 390.165603,203.586171 Z M478.41405,226.788266 L468.762579,226.788266 C467.99846,226.788266 467.211828,227.402262 467.007887,228.159261 L462.662871,244.222865 C462.457605,244.979865 462.911839,245.593861 463.675958,245.593861 L473.327428,245.593861 C474.091547,245.593861 474.878179,244.979865 475.08212,244.222865 L479.427136,228.159261 C479.632402,227.402262 479.178168,226.788266 478.41405,226.788266 Z M431.100789,226.78761 L421.449319,226.78761 C420.6852,226.78761 419.898568,227.401606 419.694626,228.158605 L417.906826,234.766934 C417.702885,235.523933 416.917577,236.137929 416.152134,236.137929 L412.585804,236.137929 C411.821686,236.137929 411.368776,235.523933 411.572718,234.766934 L413.398922,228.016914 C413.604188,227.259914 414.389496,226.645919 415.153615,226.645919 C415.917734,226.645919 416.703041,226.031923 416.908307,225.274923 L417.802207,221.971415 C418.006149,221.214416 417.553239,220.60042 416.78912,220.60042 C416.025002,220.60042 415.570768,219.986424 415.776034,219.229424 L419.179475,206.643819 C419.384741,205.886819 418.930507,205.272823 418.166388,205.272823 L389.708589,205.272823 C388.94447,205.272823 388.159162,205.886819 387.955221,206.643819 L384.550455,219.229424 C384.346514,219.986424 383.559882,220.60042 382.795763,220.60042 L373.803792,220.60042 C373.039673,220.60042 372.254365,221.214416 372.0491,221.971415 L367.645815,238.251492 C367.440549,239.008491 366.655241,239.622487 365.891123,239.622487 L365.577264,239.622487 C364.813145,239.622487 364.360236,239.009803 364.562853,238.254116 L375.845857,196.236062 C376.048474,195.480375 375.59424,194.869003 374.831446,194.869003 L357.514949,194.869003 C356.749506,194.869003 355.964199,195.484311 355.760257,196.242622 L344.471957,238.279043 C344.268015,239.037354 343.481383,239.652662 342.717264,239.652662 L315.020935,239.652662 C314.256816,239.652662 313.803907,239.038666 314.007848,238.281667 L319.580486,217.682627 C319.784428,216.924315 320.569736,216.311631 321.335179,216.311631 L321.713928,216.311631 C322.478046,216.311631 322.930956,216.924315 322.727014,217.682627 L319.151414,230.900596 C318.946149,231.657595 319.400382,232.270279 320.164501,232.271591 L341.145325,232.276839 C341.909444,232.276839 342.694751,231.662843 342.900017,230.905844 L351.458943,199.262747 C351.662885,198.504436 351.209975,197.891752 350.445857,197.891752 L327.384564,197.891752 C326.620445,197.891752 326.167535,197.277756 326.372801,196.520757 L326.80717,194.912297 C327.011112,194.155298 326.558203,193.541302 325.794084,193.541302 L317.345075,193.541302 C316.579631,193.541302 315.794324,194.155298 315.590382,194.912297 L313.239756,203.602702 L313.422509,203.602702 L333.991477,203.656492 L338.382843,203.656492 C339.146962,203.656492 339.601195,204.270488 339.39593,205.027487 L334.012666,224.929878 C333.8074,225.686878 333.022092,226.300874 332.257973,226.300874 L331.926899,226.300874 C331.16278,226.300874 330.708547,225.686878 330.913813,224.929878 L334.490737,211.706662 C334.694678,210.949662 334.241769,210.335666 333.47765,210.335666 L312.802739,210.335666 C312.03862,210.335666 311.251988,210.949662 311.048046,211.706662 L302.244126,244.257632 C302.03886,245.014632 302.491769,245.628628 303.255888,245.628628 L349.603604,245.628628 C350.367723,245.628628 351.153031,245.014632 351.358297,244.257632 L362.805512,201.933892 C363.009454,201.176893 363.796086,200.562897 364.560205,200.562897 L364.701905,200.562897 C365.466023,200.562897 365.920257,201.176893 365.714991,201.933892 L354.267775,244.255008 C354.063834,245.01332 354.518067,245.627316 355.284835,245.626004 L369.213782,245.597141 L372.913865,245.597141 C373.677984,245.597141 374.464616,244.983145 374.668557,244.226145 L379.053302,228.016914 C379.257243,227.259914 380.043875,226.645919 380.807994,226.645919 L381.161581,226.645919 C381.9257,226.645919 382.378609,227.259914 382.173344,228.016914 L378.808307,240.460828 C378.603041,241.219139 379.057275,241.831823 379.821394,241.831823 L399.869913,241.831823 L399.602405,242.817103 L397.368317,242.817103 C396.602874,242.817103 395.817567,243.431099 395.613625,244.188099 L395.442791,244.820462 C395.237525,245.577461 395.690434,246.191457 396.454553,246.191457 L407.099246,246.191457 C407.863364,246.191457 408.648672,245.577461 408.853938,244.820462 L409.290956,243.202819 C409.496222,242.445819 410.281529,241.831823 411.045648,241.831823 L427.032551,241.831823 C427.79667,241.831823 428.581978,241.219139 428.785919,240.460828 L432.113875,228.158605 C432.319141,227.401606 431.864908,226.78761 431.100789,226.78761 Z M403.605752,228.016914 L401.780872,234.766934 C401.575606,235.523933 400.790299,236.137929 400.02618,236.137929 L391.084532,236.137929 C390.320413,236.137929 389.86618,235.523933 390.071446,234.766934 L391.896326,228.016914 C392.101592,227.259914 392.886899,226.645919 393.651018,226.645919 L402.592666,226.645919 C403.356785,226.645919 403.811018,227.259914 403.605752,228.016914 Z M407.789204,212.55025 L405.982864,219.229424 C405.777598,219.986424 404.99229,220.60042 404.228172,220.60042 L395.286524,220.60042 C394.522405,220.60042 394.068172,219.986424 394.273437,219.229424 L396.079777,212.55025 C396.285043,211.793251 397.070351,211.179255 397.83447,211.179255 L406.776117,211.179255 C407.540236,211.179255 407.99447,211.793251 407.789204,212.55025 Z M398.695262,228.916523 L395.614949,228.916523 C394.772697,228.916523 393.937066,229.68533 393.89204,230.501367 L393.75034,233.040004 C393.715909,233.646129 394.139684,234.079075 394.764751,234.079075 L397.898036,234.079075 C398.752207,234.079075 399.595784,233.2919 399.623594,232.467991 L399.710997,229.929354 C399.730862,229.336349 399.31106,228.916523 398.695262,228.916523 Z M402.830509,213.413387 L399.356881,213.413387 C398.514628,213.413387 397.678997,214.182194 397.632647,214.998231 L397.471083,217.889785 C397.437975,218.495909 397.860426,218.928855 398.485494,218.928855 L402.022689,218.928855 C402.875535,218.928855 403.719112,218.140369 403.746922,217.317771 L403.846245,214.426218 C403.866109,213.833213 403.444983,213.413387 402.830509,213.413387 Z M509.245008,188.568456 C508.856371,190.012818 509.460668,191.540034 510.732162,192.332754 L540.115587,211.098115 C541.133232,211.729604 542.406973,211.785587 543.47404,211.243671 L550.997423,207.423391 C552.179059,206.823253 552.250945,205.166156 551.125471,204.465249 L513.652555,180.661417 C512.67984,180.0568 511.397113,180.560647 511.100581,181.664632 L509.245008,188.568456 Z M516.871501,202.435267 C517.509494,202.831627 517.81052,203.595235 517.615078,204.318536 L506.580484,249.290413 C506.331127,250.21973 505.69538,251.001253 504.83274,251.44016 L495.842421,256.006134 C494.525998,256.675691 493.036597,255.473176 493.418495,254.051207 L507.169055,198.984475 C507.465587,197.878251 508.748314,197.376643 509.72103,197.981259 L516.871501,202.435267 Z M567.845337,214.458172 C568.968565,215.15908 568.894432,216.813937 567.712796,217.414075 L517.457318,242.937847 C516.140894,243.607404 514.65374,242.404889 515.035638,240.98292 L517.648266,231.26651 C517.897623,230.334953 518.53337,229.55343 519.393763,229.114523 L557.343153,209.840694 C558.412466,209.298778 559.688454,209.354761 560.706098,209.990728 L567.845337,214.458172 Z" id="Combined-Shape"></path>
        </g>
    </g>
</svg>