<?xml version="1.0" encoding="UTF-8" standalone="no"?>
<svg width="154px" height="48px" viewBox="0 0 154 48" version="1.1" xmlns="http://www.w3.org/2000/svg" xmlns:xlink="http://www.w3.org/1999/xlink">
    <!-- Generator: Sketch 3.8.2 (29753) - http://www.bohemiancoding.com/sketch -->
    <title>Group 2</title>
    <desc>Created with Sketch.</desc>
    <defs>
        <rect id="path-1" x="0" y="0" width="154" height="48" rx="2.78999996"></rect>
        <mask id="mask-2" maskContentUnits="userSpaceOnUse" maskUnits="objectBoundingBox" x="0" y="0" width="154" height="48" fill="white">
            <use xlink:href="#path-1"></use>
        </mask>
    </defs>
    <g id="web" stroke="none" stroke-width="1" fill="none" fill-rule="evenodd">
        <g id="手机端" transform="translate(-111.000000, -242.000000)" fill="#FFFFFF">
            <g id="Group-2" transform="translate(111.000000, 242.000000)">
                <use id="Rectangle-10" stroke="#FFFFFF" mask="url(#mask-2)" stroke-width="2.8" fill-opacity="0.02" xlink:href="#path-1"></use>
                <path d="M41.9,22.746 L41.9,24.042 L58.082,24.042 L58.082,22.746 L41.9,22.746 Z M60.746,21.756 L60.746,22.134 L62.204,22.134 L62.204,24.348 L60.188,24.348 L60.188,25.536 L62.204,25.536 L62.204,29.64 C62.204,29.892 62.042,30.072 61.718,30.198 L62.24,31.278 C63.428,30.828 64.49,30.252 65.408,29.568 L65.192,28.452 C64.58,28.956 63.968,29.352 63.374,29.676 L63.374,25.536 L65.228,25.536 L65.228,24.348 L63.374,24.348 L63.374,22.134 L64.958,22.134 L64.958,20.982 L61.088,20.982 C61.394,20.226 61.682,19.434 61.934,18.57 L65.012,18.57 L65.012,17.328 L62.276,17.328 C62.42,16.716 62.546,16.086 62.69,15.42 L61.466,15.168 C61.07,17.436 60.458,19.506 59.612,21.378 L60.62,22.026 C60.656,21.936 60.71,21.846 60.746,21.756 L60.746,21.756 Z M75.2,22.854 L75.2,20.352 L76.046,20.352 L76.046,19.308 L75.2,19.308 L75.2,16.734 L72.698,16.734 L72.698,15.402 L71.528,15.402 L71.528,16.734 L69.746,16.734 L69.746,17.778 L71.528,17.778 L71.528,19.308 L69.134,19.308 L69.134,20.352 L71.528,20.352 L71.528,21.81 L69.746,21.81 L69.746,22.854 L71.528,22.854 L71.528,24.24 L69.566,24.24 L69.566,25.266 L71.528,25.266 L71.528,26.688 L69.116,26.688 L69.116,27.768 L71.528,27.768 L71.528,29.532 L72.698,29.532 L72.698,27.768 L75.848,27.768 L75.848,26.688 L72.698,26.688 L72.698,25.266 L75.398,25.266 L75.398,24.24 L72.698,24.24 L72.698,22.854 L75.2,22.854 Z M72.698,17.778 L74.102,17.778 L74.102,19.308 L72.698,19.308 L72.698,17.778 Z M72.698,20.352 L74.102,20.352 L74.102,21.81 L72.698,21.81 L72.698,20.352 Z M73.454,30.324 C71.708,30.252 70.43,30.036 69.62,29.64 C69.044,29.37 68.504,28.956 68.036,28.38 C68.594,26.796 68.9,24.87 68.936,22.62 L68.936,21.918 L67.082,21.918 C67.676,20.838 68.27,19.56 68.882,18.048 L68.882,16.986 L65.624,16.986 L65.624,18.102 L67.712,18.102 C67.136,19.524 66.47,20.856 65.75,22.08 L65.75,22.98 L67.892,22.98 C67.82,24.564 67.604,25.968 67.244,27.192 C66.812,26.364 66.47,25.428 66.236,24.366 L65.264,24.726 C65.624,26.238 66.128,27.498 66.758,28.506 C66.362,29.406 65.84,30.18 65.228,30.828 L66.11,31.692 C66.668,31.08 67.154,30.378 67.55,29.55 C67.874,29.928 68.252,30.252 68.684,30.522 C69.62,31.134 71.438,31.458 74.102,31.494 L76.064,31.494 L76.298,30.252 C75.596,30.288 74.642,30.324 73.454,30.324 L73.454,30.324 Z M77.99,16.248 L77.99,17.526 L84.866,17.526 L84.866,31.836 L86.18,31.836 L86.18,21.612 C87.8,22.476 89.816,23.7 92.21,25.284 L92.984,24.132 C90.68,22.656 88.412,21.36 86.18,20.244 L86.18,17.526 L93.992,17.526 L93.992,16.248 L77.99,16.248 Z M97.016,16.752 L97.016,17.94 L100.526,17.94 L100.526,19.596 L96.08,19.596 L96.08,20.766 L106.178,20.766 C106.286,22.386 106.484,23.772 106.736,24.96 C106.934,25.914 107.168,26.778 107.42,27.57 C106.502,28.956 105.386,30 104.09,30.72 L104.792,31.764 C105.98,31.116 107.042,30.198 107.978,28.974 C108.122,29.316 108.302,29.64 108.5,29.946 C109.202,31.026 109.868,31.584 110.48,31.584 C111.236,31.584 111.794,30.378 112.19,27.984 L111.074,27.39 C110.858,29.298 110.606,30.252 110.318,30.27 C110.03,30.27 109.652,29.82 109.184,28.938 C109.022,28.614 108.86,28.254 108.716,27.84 C109.616,26.328 110.354,24.438 110.93,22.188 L109.778,21.666 C109.382,23.358 108.86,24.87 108.212,26.166 C108.104,25.698 107.996,25.212 107.888,24.69 C107.69,23.682 107.546,22.368 107.438,20.766 L111.902,20.766 L111.902,19.596 L107.366,19.596 C107.294,18.3 107.258,16.842 107.258,15.204 L105.998,15.204 C105.998,16.788 106.034,18.246 106.106,19.596 L101.786,19.596 L101.786,17.94 L105.044,17.94 L105.044,16.752 L101.786,16.752 L101.786,15.24 L100.526,15.24 L100.526,16.752 L97.016,16.752 Z M109.112,15.438 L108.122,16.068 C109.022,17.058 109.724,17.958 110.228,18.768 L111.2,18.084 C110.714,17.328 110.012,16.446 109.112,15.438 L109.112,15.438 Z M105.044,28.128 C104.162,28.236 103.226,28.344 102.236,28.452 L102.236,26.976 L104.972,26.976 L104.972,25.878 L102.236,25.878 L102.236,24.474 L100.958,24.474 L100.958,25.878 L98.636,25.878 C99.086,25.23 99.518,24.492 99.914,23.664 L105.134,23.664 L105.134,22.512 L100.418,22.512 C100.562,22.152 100.706,21.774 100.85,21.378 L99.608,21.144 C99.446,21.612 99.284,22.08 99.104,22.512 L96.62,22.512 L96.62,23.664 L98.6,23.664 C98.168,24.564 97.7,25.302 97.196,25.914 L97.448,26.976 L100.958,26.976 L100.958,28.578 C99.626,28.686 98.204,28.794 96.692,28.884 L96.854,30.09 C98.294,29.982 99.662,29.874 100.958,29.748 L100.958,31.746 L102.236,31.746 L102.236,29.622 C103.208,29.514 104.144,29.388 105.044,29.28 L105.044,28.128 Z" id="一键下载"></path>
            </g>
        </g>
    </g>
</svg>