<?xml version="1.0" encoding="UTF-8" standalone="no"?>
<svg width="590px" height="39px" viewBox="0 0 590 39" version="1.1" xmlns="http://www.w3.org/2000/svg" xmlns:xlink="http://www.w3.org/1999/xlink">
    <!-- Generator: Sketch 3.8.2 (29753) - http://www.bohemiancoding.com/sketch -->
    <title>打造属于你的跑步音乐 </title>
    <desc>Created with Sketch.</desc>
    <defs></defs>
    <g id="web" stroke="none" stroke-width="1" fill="none" fill-rule="evenodd">
        <g id="Desktop-HD-Copy" transform="translate(-110.000000, -315.000000)" fill="#FFFFFF">
            <path d="M136.7,349.4 L138.25,353.15 L151.95,353.15 L151.95,321.6 L159.9,321.6 L159.9,317.1 L130,317.1 L130,321.6 L142.25,321.6 L142.25,349.4 L136.7,349.4 Z M123.85,320.2 L123.85,316 L114.55,316 L114.55,320.2 L110.05,320.2 L110.05,324.85 L114.55,324.85 L114.55,333.8 L110.05,334.8 L110.05,340 L114.55,339 L114.55,348.7 L111.3,348.7 L113.25,353.05 L123.85,353.05 L123.85,336.95 L127.95,336 L127.95,330.8 L123.85,331.75 L123.85,324.85 L127.95,324.85 L127.95,320.2 L123.85,320.2 Z M183.8,327.05 L183.8,331.35 L219.7,331.35 L219.7,327.05 L207.15,327.05 L207.15,323.2 L217.9,323.2 L217.9,318.85 L207.15,318.85 L207.15,315.85 L197.85,315.85 L197.85,318.85 L194.1,318.85 L194.7,316.65 L186.55,316.65 L185,322.25 L183.55,322.25 L184.4,325.2 L192.45,325.2 L192.95,323.2 L197.85,323.2 L197.85,327.05 L183.8,327.05 Z M194.5,342.1 L194.5,337.45 L209,337.45 L209,346.4 L218.05,346.4 L218,333.1 L185.5,333.1 L185.5,346.4 L206.7,346.4 L209,342.1 L194.5,342.1 Z M181.65,352.65 L181.65,324.4 L170.3,324.4 L170.3,329.15 L173,329.15 L173,348 L170.3,348 L170.3,352.65 L181.65,352.65 Z M216.7,352.65 L219.7,348 L181.8,348 L184.8,352.65 L216.7,352.65 Z M181.05,323.5 L181.75,320.4 L180.25,320.4 L179.15,316.2 L170.65,316.2 L172.5,323.5 L181.05,323.5 Z M264.9,341.25 L264.9,340.2 L269.6,340.2 L270.5,337.15 L270.5,340.2 L278.75,340.2 L278.75,332.35 L264.9,332.35 L264.9,331.2 L277.45,331.2 L278.95,327.3 L242.5,327.3 L242.5,331.2 L256.4,331.2 L256.4,332.35 L242.8,332.35 L242.8,340.2 L256.4,340.2 L256.4,341.25 L242.35,341.25 L242.35,353.1 L250,353.1 L250,344.75 L256.4,344.75 L256.4,347.55 L250.75,347.55 L250.75,351.4 L265.5,351.4 L266.5,347.75 L266.5,351.4 L270.75,351.4 L271.35,353.05 L279.2,353.05 L279.2,341.25 L264.9,341.25 Z M241.65,322.2 L241.65,320.35 L270,320.35 L270,326.55 L279.1,326.55 L279.1,316 L232.55,316 L232.55,346.9 L230.8,346.9 L230.8,352.95 L241.65,352.95 L241.65,326.55 L268.8,326.55 L270,322.2 L241.65,322.2 Z M271.05,349.8 L271.05,346.2 L266.5,346.2 L266.5,347.55 L264.9,347.55 L264.9,344.75 L272,344.75 L272,349.8 L271.05,349.8 Z M264.9,337.1 L264.9,335.4 L270.5,335.4 L270.5,337.1 L264.9,337.1 Z M251,335.4 L256.4,335.4 L256.4,337.1 L251,337.1 L251,335.4 Z M319.4,352.9 L319.4,335.15 L339.85,335.15 L339.85,330.5 L319.4,330.5 L319.4,321.4 L337.5,321.4 L337.5,316.7 L292.45,316.7 L292.45,321.4 L310.4,321.4 L310.4,330.5 L290.1,330.5 L290.1,335.15 L310.4,335.15 L310.4,348.25 L303.35,348.25 L306.95,352.9 L319.4,352.9 Z M362.1,353.15 L362.1,328.35 L360.8,328.35 L367.75,315.9 L358.65,315.9 L352.65,326.35 L350.25,326.35 L351.7,331.9 L354.1,331.9 L354.1,353.15 L362.1,353.15 Z M373.3,328.5 L376.25,322.95 L390.8,322.95 L390.8,329.3 L399.2,329.3 L399.2,318.3 L378.7,318.3 L379.9,316.05 L370.95,316.05 L366.45,324.65 L364.3,324.65 L365.65,328.5 L373.3,328.5 Z M386.45,353.05 L386.45,325.5 L377.45,325.5 L377.45,348.7 L374.8,348.7 L376.6,353.05 L386.45,353.05 Z M374,350.45 L375.5,331.45 L367.25,331.45 L366.05,346.55 L363.9,346.55 L365.6,350.45 L374,350.45 Z M398,350.45 L399.7,346.55 L397.55,346.55 L396.35,331.45 L388.15,331.45 L389.65,350.45 L398,350.45 Z M419.35,348.35 L419.35,338.3 L426.15,338.3 L426.15,352.85 L434.85,352.85 L434.85,319.25 L421.8,319.25 L423.2,316.05 L414.15,316.05 L412.8,319.25 L410.65,319.25 L410.65,352.85 L423.6,352.85 L426.15,348.35 L419.35,348.35 Z M443.6,327.8 L445.6,323.8 L450.65,323.8 L450.65,348.45 L444.55,348.45 L446.7,352.95 L459.35,352.95 L459.35,318.55 L448.25,318.55 L449.55,316 L440.4,316 L436.55,323.6 L434.9,323.6 L435.75,327.8 L443.6,327.8 Z M448.55,345.5 L449.85,341.4 L448.1,341.4 L444.75,330.15 L436.75,330.15 L441.3,345.5 L448.55,345.5 Z M419.35,323.75 L426.15,323.75 L426.15,333.8 L419.35,333.8 L419.35,323.75 Z M500.05,326.8 L501.2,323.1 L511.95,323.1 L511.95,341.25 L510.6,341.25 L510.6,327.85 L493.25,327.85 L493.25,352.95 L517.9,352.95 L519.95,348.7 L500.4,348.7 L500.4,343.45 L502,343.45 L503.45,339.2 L500.4,339.2 L500.4,332.1 L503.45,332.1 L503.45,343.45 L510.6,343.45 L510.6,341.7 L511.45,344.3 L519.35,344.3 L519.35,319 L502.55,319 L503.5,316 L495.7,316 L493.35,323.15 L491.95,323.15 L492.85,326.8 L500.05,326.8 Z M470.55,330.65 L479.4,330.65 L479.4,348.85 L477.75,348.85 L477.75,332.5 L471.3,332.5 L471.3,348.85 L470.05,348.85 L470.05,352.85 L490.35,352.85 L491.85,348.85 L486.5,348.85 L486.5,341 L490.8,341 L490.8,336.75 L486.5,336.75 L486.5,330.65 L491.45,330.65 L491.45,316.25 L470.55,316.25 L470.55,330.65 Z M484.1,327.15 L477.6,327.15 L477.6,319.75 L484.1,319.75 L484.1,327.15 Z M560.4,343.25 L560.4,331.85 L579.8,331.85 L579.8,327.1 L559.05,327.1 L559.05,323.5 L578.4,323.5 L578.4,318.75 L559.05,318.75 L559.05,315.95 L549.95,315.95 L549.95,327.1 L544.3,327.1 L544.3,317.45 L534.95,317.45 L534.95,327.1 L530.15,327.1 L530.15,331.85 L551.3,331.85 L551.3,343.25 L560.4,343.25 Z M570.15,334.3 C565.15,344.65 558,347 542.25,347 L531.65,347 L531.65,353.05 L541.85,353.05 C565.45,353.05 574.25,347.75 578.75,334.3 L570.15,334.3 Z M537.1,333.8 L534.4,339.85 L532.75,339.85 L533.85,343.6 L542.8,343.6 L546.8,333.8 L537.1,333.8 Z M593.2,335.05 L593.2,352.9 L623.9,352.9 L626.75,348.45 L603.2,348.45 L603.2,346.25 L626.75,346.25 L626.75,352.9 L636.75,352.9 L636.75,335.05 L593.2,335.05 Z M590.15,328.75 L590.15,333.25 L639.8,333.25 L639.8,328.75 L630.2,328.75 L632.5,324.1 L622.55,324.1 L620.2,328.75 L609.7,328.75 L607.4,324.1 L597.4,324.1 L599.7,328.75 L590.15,328.75 Z M591.05,318.4 L591.05,322.9 L638.9,322.9 L638.9,318.4 L619.95,318.4 L619.95,315.8 L610,315.8 L610,318.4 L591.05,318.4 Z M603.2,339.55 L626.75,339.55 L626.75,341.75 L603.2,341.75 L603.2,339.55 Z M679.05,353.25 L679.05,336.3 L697.4,336.3 L697.4,331.8 L679.05,331.8 L679.05,325.5 L670.05,325.5 L670.05,331.8 L661.6,331.8 L661.6,321.45 L693.85,321.45 L696.85,316.75 L652.85,316.75 L652.85,336.3 L670.05,336.3 L670.05,349.1 L666.35,349.1 L668.6,353.25 L679.05,353.25 Z M660.25,352.15 L663.45,339.1 L655.15,339.1 L653.15,347.15 L650.55,347.15 L652.25,352.15 L660.25,352.15 Z M697.65,352.15 L699.4,347.15 L696.75,347.15 L694.8,339.1 L686.45,339.1 L689.7,352.15 L697.65,352.15 Z" id="打造属于你的跑步音乐-"></path>
        </g>
    </g>
</svg>